<svg width="60" height="60" viewBox="0 0 60 60" fill="none" xmlns="http://www.w3.org/2000/svg">
<path d="M10.5 17C9.79167 17 9.19792 16.7604 8.71875 16.2812C8.23958 15.8021 8 15.2083 8 14.5C8 13.7917 8.23958 13.1979 8.71875 12.7188C9.19792 12.2396 9.79167 12 10.5 12H50.5C51.2083 12 51.8021 12.2396 52.2812 12.7188C52.7604 13.1979 53 13.7917 53 14.5C53 15.2083 52.7604 15.8021 52.2812 16.2812C51.8021 16.7604 51.2083 17 50.5 17H10.5ZM10.5 47C9.79167 47 9.19792 46.7604 8.71875 46.2812C8.23958 45.8021 8 45.2083 8 44.5C8 43.7917 8.23958 43.1979 8.71875 42.7188C9.19792 42.2396 9.79167 42 10.5 42H50.5C51.2083 42 51.8021 42.2396 52.2812 42.7188C52.7604 43.1979 53 43.7917 53 44.5C53 45.2083 52.7604 45.8021 52.2812 46.2812C51.8021 46.7604 51.2083 47 50.5 47H10.5ZM10.5 32C9.79167 32 9.19792 31.7604 8.71875 31.2812C8.23958 30.8021 8 30.2083 8 29.5C8 28.7917 8.23958 28.1979 8.71875 27.7188C9.19792 27.2396 9.79167 27 10.5 27H50.5C51.2083 27 51.8021 27.2396 52.2812 27.7188C52.7604 28.1979 53 28.7917 53 29.5C53 30.2083 52.7604 30.8021 52.2812 31.2812C51.8021 31.7604 51.2083 32 50.5 32H10.5Z" fill="white"/>
</svg>
