<svg width="93" height="38" viewBox="0 0 93 38" fill="none" xmlns="http://www.w3.org/2000/svg">
<path d="M2.41478 38C1.78347 38 1.27841 37.7546 0.899625 37.2638C0.520836 36.7729 0.410355 36.2267 0.568184 35.625L7.67049 7.125L7.57579 5.795C7.54422 5.25667 7.35483 4.78958 7.00761 4.39375C6.66038 3.99792 6.21846 3.8 5.68184 3.8C5.14522 3.8 4.69541 3.98208 4.33241 4.34625C3.9694 4.71042 3.78789 5.16167 3.78789 5.7V7.6C3.78789 8.13833 3.60639 8.58958 3.24339 8.95375C2.88038 9.31792 2.43057 9.5 1.89395 9.5C1.35733 9.5 0.907516 9.31792 0.54451 8.95375C0.181503 8.58958 0 8.13833 0 7.6V5.7C0 4.11667 0.552401 2.77083 1.6572 1.6625C2.76201 0.554167 4.10355 0 5.68184 0H26.61C28.1251 0 29.4272 0.514583 30.5162 1.54375C31.6053 2.57292 32.1971 3.8475 32.2918 5.3675L33.9964 36.005C34.0279 36.5433 33.8543 37.0104 33.4755 37.4062C33.0967 37.8021 32.639 38 32.1024 38H2.41478ZM4.92426 34.2H9.32769L8.42807 19.76L4.92426 34.2ZM13.1629 34.2H30.1138L28.5039 5.605C28.4723 5.09833 28.2751 4.67083 27.9121 4.3225C27.549 3.97417 27.115 3.8 26.61 3.8H11.0322C11.1585 4.11667 11.2374 4.42542 11.269 4.72625C11.3006 5.02708 11.3321 5.35167 11.3637 5.7L13.1629 34.2ZM20.3599 30.4C20.7703 30.4 21.1096 30.2654 21.3779 29.9963C21.6462 29.7271 21.7804 29.3867 21.7804 28.975V22.8C22.6011 22.61 23.2798 22.1746 23.8164 21.4937C24.353 20.8129 24.6213 20.0292 24.6213 19.1425V12.35C24.6213 12.0967 24.5266 11.875 24.3372 11.685C24.1478 11.495 23.9269 11.4 23.6743 11.4C23.4218 11.4 23.2009 11.495 23.0115 11.685C22.8221 11.875 22.7274 12.0967 22.7274 12.35V18.5725H21.3069V12.35C21.3069 12.0967 21.2122 11.875 21.0228 11.685C20.8334 11.495 20.6125 11.4 20.3599 11.4C20.1074 11.4 19.8864 11.495 19.6971 11.685C19.5077 11.875 19.413 12.0967 19.413 12.35V18.5725H17.9925V12.35C17.9925 12.0967 17.8978 11.875 17.7084 11.685C17.519 11.495 17.2981 11.4 17.0455 11.4C16.793 11.4 16.572 11.495 16.3826 11.685C16.1933 11.875 16.0986 12.0967 16.0986 12.35V19.1425C16.0986 20.0292 16.3669 20.8129 16.9035 21.4937C17.4401 22.1746 18.1188 22.61 18.9395 22.8V28.975C18.9395 29.3867 19.0736 29.7271 19.3419 29.9963C19.6102 30.2654 19.9496 30.4 20.3599 30.4Z" fill="white"/>
<path d="M78.1035 37.354V16.954H84.4935C86.7135 16.954 88.6135 17.464 90.1935 18.484C91.7735 19.484 92.5635 21.154 92.5635 23.494C92.5435 25.814 91.6835 27.524 89.9835 28.624C88.3035 29.704 86.3835 30.244 84.2235 30.244H81.9735V37.354H78.1035ZM84.3735 20.194H81.9735V27.034H84.4335C85.5935 27.034 86.5335 26.774 87.2535 26.254C87.9735 25.714 88.3735 24.874 88.4535 23.734C88.4535 22.414 88.0935 21.494 87.3735 20.974C86.6535 20.454 85.6535 20.194 84.3735 20.194Z" fill="white"/>
<path d="M59.8809 37.354V16.954H66.2709C68.4909 16.954 70.3909 17.464 71.9709 18.484C73.5509 19.484 74.3409 21.154 74.3409 23.494C74.3209 25.814 73.4609 27.524 71.7609 28.624C70.0809 29.704 68.1609 30.244 66.0009 30.244H63.7509V37.354H59.8809ZM66.1509 20.194H63.7509V27.034H66.2109C67.3709 27.034 68.3109 26.774 69.0309 26.254C69.7509 25.714 70.1509 24.874 70.2309 23.734C70.2309 22.414 69.8709 21.494 69.1509 20.974C68.4309 20.454 67.4309 20.194 66.1509 20.194Z" fill="white"/>
<path d="M47.5098 22.294L44.8398 29.404H50.2398L47.5098 22.294ZM49.2498 16.954L57.1698 36.814L53.2698 37.354L51.4398 32.554H43.6998L41.8998 37.354H37.9998L45.9498 16.954H49.2498Z" fill="white"/>
<path d="M91.9737 0.645996V13.354H89.6517V0.843996L91.9737 0.645996Z" fill="white"/>
<path d="M87.1924 0.645996V13.354H84.8704V0.843996L87.1924 0.645996Z" fill="white"/>
<path d="M79.4538 13.57C77.9418 13.57 76.7478 13.156 75.8718 12.328C75.0078 11.5 74.5758 10.39 74.5758 8.99802C74.5758 7.60602 74.9658 6.49002 75.7458 5.65001C76.5378 4.81001 77.6118 4.39001 78.9678 4.39001C80.3358 4.39001 81.3378 4.84601 81.9738 5.75801C82.6218 6.65801 82.9458 7.72602 82.9458 8.96202V9.68202H77.0598C77.1678 10.258 77.4318 10.72 77.8518 11.068C78.2718 11.404 78.8238 11.572 79.5078 11.572C79.9038 11.572 80.2578 11.524 80.5698 11.428C80.8938 11.32 81.2658 11.17 81.6858 10.978L82.3698 12.67C81.9618 12.982 81.4638 13.21 80.8758 13.354C80.2998 13.498 79.8258 13.57 79.4538 13.57ZM80.7318 8.11602C80.6118 7.52802 80.3958 7.09601 80.0838 6.82001C79.7718 6.53201 79.3818 6.38801 78.9138 6.38801C78.4338 6.38801 78.0318 6.53801 77.7078 6.83801C77.3838 7.12601 77.1738 7.55202 77.0778 8.11602H80.7318Z" fill="white"/>
<path d="M73.6386 13.174C73.4466 13.33 73.1706 13.456 72.8106 13.552C72.4626 13.66 72.1506 13.714 71.8746 13.714C70.7946 13.714 69.9426 13.444 69.3186 12.904C68.7066 12.352 68.4006 11.572 68.4006 10.564V6.44202H67.2306V4.64202H68.4006V2.57202L70.7226 2.15802V4.64202H72.3066L73.0266 6.44202H70.7226V10.15C70.7226 10.606 70.8306 10.984 71.0466 11.284C71.2626 11.572 71.5806 11.716 72.0006 11.716C72.1566 11.716 72.3126 11.698 72.4686 11.662C72.6246 11.626 72.7866 11.566 72.9546 11.482L73.6386 13.174Z" fill="white"/>
<path d="M65.599 6.98202C65.179 6.79002 64.789 6.64601 64.429 6.55001C64.069 6.44201 63.685 6.38801 63.277 6.38801C62.977 6.38801 62.743 6.44801 62.575 6.56802C62.419 6.67601 62.341 6.83202 62.341 7.03602C62.341 7.18002 62.437 7.31802 62.629 7.45002C62.833 7.58202 63.157 7.72602 63.601 7.88202C64.333 8.14602 65.011 8.51802 65.635 8.99802C66.259 9.46602 66.571 10.078 66.571 10.834C66.571 11.698 66.259 12.37 65.635 12.85C65.023 13.33 64.123 13.57 62.935 13.57C62.563 13.57 62.065 13.498 61.441 13.354C60.829 13.21 60.319 12.982 59.911 12.67L60.613 10.978C61.033 11.17 61.435 11.32 61.819 11.428C62.215 11.524 62.575 11.572 62.899 11.572C63.331 11.572 63.661 11.512 63.889 11.392C64.117 11.272 64.231 11.116 64.231 10.924C64.231 10.684 64.117 10.468 63.889 10.276C63.661 10.084 63.301 9.91002 62.809 9.75401C62.113 9.52601 61.453 9.20201 60.829 8.78201C60.217 8.35001 59.911 7.77402 59.911 7.05402C59.911 6.22602 60.217 5.57801 60.829 5.11001C61.441 4.63002 62.269 4.39001 63.313 4.39001C63.685 4.39001 64.165 4.46801 64.753 4.62401C65.341 4.78001 65.857 5.00801 66.301 5.30801L65.599 6.98202Z" fill="white"/>
<path d="M55.1784 13.57C53.6664 13.57 52.4724 13.156 51.5964 12.328C50.7324 11.5 50.3004 10.39 50.3004 8.99802C50.3004 7.60602 50.6904 6.49002 51.4704 5.65001C52.2624 4.81001 53.3364 4.39001 54.6924 4.39001C56.0604 4.39001 57.0624 4.84601 57.6984 5.75801C58.3464 6.65801 58.6704 7.72602 58.6704 8.96202V9.68202H52.7844C52.8924 10.258 53.1564 10.72 53.5764 11.068C53.9964 11.404 54.5484 11.572 55.2324 11.572C55.6284 11.572 55.9824 11.524 56.2944 11.428C56.6184 11.32 56.9904 11.17 57.4104 10.978L58.0944 12.67C57.6864 12.982 57.1884 13.21 56.6004 13.354C56.0244 13.498 55.5504 13.57 55.1784 13.57ZM56.4564 8.11602C56.3364 7.52802 56.1204 7.09601 55.8084 6.82001C55.4964 6.53201 55.1064 6.38801 54.6384 6.38801C54.1584 6.38801 53.7564 6.53801 53.4324 6.83801C53.1084 7.12601 52.8984 7.55202 52.8024 8.11602H56.4564Z" fill="white"/>
<path d="M43.9038 1.11401C45.0918 1.11401 46.0578 1.37801 46.8018 1.90601C47.5458 2.42201 47.9178 3.29801 47.9178 4.53401C47.9178 4.99001 47.8098 5.40401 47.5938 5.77601C47.3898 6.13601 47.1198 6.44801 46.7838 6.71201C47.3358 7.00001 47.7858 7.39001 48.1338 7.88201C48.4938 8.37401 48.6738 8.99801 48.6738 9.75401C48.6738 10.882 48.2778 11.764 47.4858 12.4C46.7058 13.036 45.6618 13.354 44.3538 13.354H39.3318V1.11401H43.9038ZM43.5618 3.05801H41.6538V6.10001H43.3818C44.0298 6.10001 44.5338 5.98001 44.8938 5.74001C45.2658 5.48801 45.4518 5.09801 45.4518 4.57001C45.4518 3.99401 45.2838 3.59801 44.9478 3.38201C44.6118 3.16601 44.1498 3.05801 43.5618 3.05801ZM44.3358 7.99001H41.6538V11.428H44.1738C44.7978 11.428 45.2958 11.284 45.6678 10.996C46.0518 10.708 46.2438 10.3 46.2438 9.77201C46.2438 9.19601 46.0698 8.75801 45.7218 8.45801C45.3738 8.14601 44.9118 7.99001 44.3358 7.99001Z" fill="white"/>
</svg>
